<svg xmlns="http://www.w3.org/2000/svg" xmlns:xlink="http://www.w3.org/1999/xlink" width="300" zoomAndPan="magnify" viewBox="0 0 224.87999 74.999997" height="100" preserveAspectRatio="xMidYMid meet" version="1.0"><defs><g/></defs><g fill="#8c52ff" fill-opacity="1"><g transform="translate(17.60368, 60.178157)"><g><path d="M 28.5 -34.632812 C 28.328125 -34.976562 28.097656 -35.378906 27.808594 -35.609375 C 27.007812 -36.355469 26.203125 -35.378906 25.058594 -34.289062 C 25.058594 -34.347656 24.597656 -35.550781 22.707031 -36.011719 C 15.539062 -37.671875 -0.402344 -18.0625 3.441406 -7.511719 C 3.726562 -6.707031 4.242188 -5.90625 4.988281 -5.5625 C 6.535156 -4.816406 8.199219 -5.621094 9.347656 -6.652344 C 12.269531 -9.117188 17.085938 -13.359375 18.921875 -16.742188 C 18.980469 -16.800781 19.039062 -16.914062 19.039062 -16.972656 C 19.039062 -17.03125 19.039062 -17.085938 18.980469 -17.085938 L 19.039062 -17.316406 C 19.152344 -17.488281 18.921875 -18.347656 18.75 -18.234375 C 18.292969 -18.691406 18.691406 -17.777344 14.449219 -13.53125 C 12.902344 -12.042969 15.082031 -13.703125 11.066406 -10.378906 C 7.625 -7.511719 7.96875 -8.085938 6.882812 -7.511719 C 6.078125 -7.109375 5.449219 -7.398438 5.101562 -8.199219 C 4.128906 -10.378906 5.160156 -13.304688 5.90625 -15.539062 C 6.136719 -16.285156 6.363281 -17.203125 6.765625 -17.890625 C 6.9375 -18.121094 6.996094 -18.40625 6.996094 -18.519531 C 6.9375 -18.75 7.683594 -19.210938 7.683594 -19.667969 C 7.683594 -19.839844 7.742188 -20.011719 7.796875 -20.011719 C 8.027344 -20.011719 8.660156 -21.042969 8.832031 -21.730469 C 9.289062 -23.164062 11.984375 -26.433594 12.15625 -26.777344 C 13.1875 -28.441406 16.6875 -32.054688 19.324219 -33.542969 C 20.011719 -33.890625 22.25 -35.4375 23.222656 -34.289062 C 23.453125 -34.003906 23.855469 -32.972656 23.394531 -32.511719 C 23.335938 -32.457031 18.980469 -28.15625 17.71875 -25.402344 C 17.203125 -24.3125 16.742188 -22.304688 18.003906 -21.503906 C 18.464844 -21.273438 18.292969 -22.9375 19.78125 -25.230469 C 21.445312 -27.867188 26.320312 -32.628906 28.097656 -33.714844 C 28.5 -33.945312 28.613281 -34.117188 28.5 -34.632812 Z M 17.546875 -32.914062 C 17.375 -32.972656 17.203125 -32.742188 16.113281 -31.765625 C 14.738281 -30.5625 15.308594 -30.449219 14.851562 -30.332031 C 14.507812 -30.277344 13.820312 -29.242188 13.359375 -28.898438 C 12.84375 -28.613281 12.730469 -27.867188 12.097656 -27.351562 C 11.582031 -26.835938 11.871094 -26.664062 11.582031 -26.605469 C 11.238281 -26.550781 10.609375 -25.058594 10.320312 -25 C 10.035156 -24.945312 10.148438 -24.484375 9.921875 -24.425781 C 9.691406 -24.371094 7.511719 -20.644531 7.570312 -20.414062 C 7.625 -20.242188 6.9375 -19.898438 6.824219 -19.152344 C 6.707031 -18.40625 6.363281 -18.636719 6.421875 -18.40625 C 6.480469 -18.175781 5.277344 -15.539062 5.046875 -14.910156 C 4.757812 -14.277344 4.875 -14.335938 4.359375 -11.871094 C 3.84375 -9.519531 3.667969 -11.066406 4.875 -15.195312 C 5.332031 -16.859375 6.136719 -18.175781 6.078125 -18.519531 C 5.964844 -18.808594 6.535156 -18.867188 6.59375 -19.324219 C 6.652344 -20.183594 7.398438 -21.558594 9.402344 -24.597656 C 11.410156 -27.695312 12.15625 -27.808594 11.753906 -27.984375 C 11.179688 -28.15625 12.269531 -28.039062 12.613281 -28.726562 C 12.785156 -29.070312 12.785156 -29.070312 12.558594 -28.898438 C 12.15625 -28.613281 12.269531 -28.84375 13.015625 -29.644531 C 14.910156 -31.765625 15.253906 -32.109375 15.652344 -32.054688 C 15.882812 -32.054688 15.941406 -32.109375 15.769531 -32.167969 C 15.539062 -32.226562 15.652344 -32.339844 16.113281 -32.742188 C 16.800781 -33.316406 17.03125 -33.371094 16.972656 -33.144531 C 16.859375 -32.914062 17.085938 -32.972656 17.433594 -33.371094 C 18.519531 -34.460938 17.777344 -32.800781 17.546875 -32.914062 Z M 25.289062 -32.855469 C 25.230469 -32.914062 25.804688 -33.371094 25.917969 -33.316406 C 26.089844 -33.199219 25.34375 -32.570312 25.289062 -32.855469 Z M 14.449219 -30.90625 C 14.277344 -30.847656 13.703125 -30.046875 13.875 -30.105469 C 14.105469 -30.160156 14.621094 -30.964844 14.449219 -30.90625 Z M 21.214844 -27.867188 C 20.816406 -27.351562 20.242188 -26.949219 19.78125 -26.492188 C 19.382812 -26.089844 18.867188 -25.230469 18.636719 -25.171875 C 17.488281 -24.886719 21.101562 -28.671875 21.730469 -29.359375 C 23.394531 -31.367188 22.820312 -29.703125 21.214844 -27.867188 Z M 12.960938 -29.300781 C 13.015625 -29.1875 13.1875 -29.300781 13.417969 -29.589844 C 13.933594 -30.21875 12.902344 -29.417969 12.960938 -29.300781 Z M 11.582031 -9.746094 L 14.449219 -12.15625 C 14.679688 -12.214844 14.910156 -13.246094 18.464844 -16.6875 C 17.777344 -15.082031 15.367188 -13.246094 15.082031 -12.5 C 14.910156 -12.042969 13.589844 -10.894531 13.359375 -10.722656 C 13.1875 -10.550781 13.132812 -10.378906 12.960938 -10.265625 C 12.613281 -10.035156 12.441406 -10.09375 12.214844 -9.746094 C 11.925781 -9.289062 10.953125 -8.601562 10.664062 -8.542969 C 9.746094 -8.488281 11.46875 -9.574219 11.582031 -9.746094 Z M 3.898438 -10.378906 C 3.84375 -10.550781 4.128906 -10.609375 4.128906 -10.550781 C 4.1875 -10.492188 3.957031 -10.148438 3.898438 -10.378906 Z M 3.898438 -10.378906 "/></g></g></g><g fill="#8c52ff" fill-opacity="1"><g transform="translate(36.982814, 60.178157)"><g><path d="M 10.894531 -8.542969 C 11.753906 -8.601562 11.410156 -8.429688 20.699219 -14.394531 L 24.253906 -16.6875 C 24.542969 -16.859375 25.746094 -17.605469 25.515625 -18.0625 C 25.460938 -18.175781 25.402344 -18.234375 25.289062 -18.234375 C 25.230469 -18.175781 19.152344 -15.136719 17.71875 -14.21875 C 12.785156 -11.066406 11.582031 -10.953125 11.355469 -11.355469 C 10.953125 -12.042969 13.132812 -14.851562 13.246094 -14.851562 C 13.476562 -14.851562 18.636719 -21.503906 18.578125 -21.847656 C 18.519531 -22.078125 18.121094 -22.363281 17.949219 -22.421875 C 16.972656 -22.765625 13.074219 -18.003906 12.328125 -17.488281 C 2.753906 -10.894531 3.441406 -11.8125 3.210938 -12.613281 C 3.210938 -12.730469 3.097656 -12.84375 3.097656 -12.960938 C 3.097656 -13.476562 4.300781 -13.992188 4.359375 -14.046875 C 4.414062 -14.21875 3.957031 -14.910156 4.875 -14.964844 C 4.929688 -14.679688 4.816406 -14.394531 4.644531 -14.164062 C 4.703125 -14.105469 4.816406 -14.164062 4.875 -14.277344 C 5.675781 -15.480469 10.894531 -21.847656 10.378906 -21.332031 C 9.003906 -22.476562 9.230469 -23.164062 5.277344 -18.292969 C 2.523438 -14.910156 1.433594 -13.476562 0.6875 -12.042969 C -0.0585938 -10.78125 -0.230469 -9.746094 0.34375 -9.976562 C 0.515625 -10.09375 0.574219 -10.035156 0.515625 -9.632812 C 0.457031 -9.289062 0.515625 -9.058594 0.976562 -8.773438 L 1.433594 -8.371094 C 1.777344 -8.542969 2.636719 -8.886719 3.957031 -9.976562 C 5.046875 -10.894531 8.886719 -12.84375 9.460938 -13.476562 C 10.265625 -14.394531 10.550781 -13.875 10.207031 -13.53125 C 10.035156 -13.359375 8.660156 -11.007812 9.347656 -9.746094 C 9.632812 -9.230469 10.148438 -8.488281 10.894531 -8.542969 Z M 11.925781 -14.738281 C 11.46875 -14.277344 11.640625 -15.136719 11.925781 -15.023438 C 12.042969 -14.964844 12.042969 -14.851562 11.925781 -14.738281 Z M 10.550781 -13.359375 C 10.320312 -14.046875 12.269531 -15.136719 11.066406 -13.648438 C 10.78125 -13.304688 10.609375 -13.1875 10.550781 -13.359375 Z M 9.519531 -11.699219 C 9.460938 -11.871094 10.265625 -13.1875 10.378906 -13.074219 C 10.492188 -12.960938 9.574219 -11.46875 9.519531 -11.699219 Z M 9.519531 -11.699219 "/></g></g></g><g fill="#8c52ff" fill-opacity="1"><g transform="translate(55.673934, 60.178157)"><g><path d="M -2.808594 -1.375 C -2.582031 -1.375 -2.179688 -2.234375 -2.351562 -2.523438 C -2.523438 -2.753906 -3.039062 -2.636719 -2.867188 -2.867188 C -2.695312 -3.097656 -2.582031 -4.128906 -1.546875 -5.332031 C -1.089844 -5.90625 -1.261719 -6.078125 -1.71875 -5.675781 C -2.464844 -5.046875 -2.523438 -5.5625 -1.835938 -6.535156 C -1.261719 -7.398438 -1.777344 -6.996094 -1.777344 -7.339844 C -1.777344 -7.453125 -1.71875 -7.511719 -1.605469 -7.511719 C -1.320312 -7.453125 -1.03125 -7.511719 -1.03125 -7.625 C -1.089844 -7.796875 -1.03125 -7.796875 -0.917969 -8.257812 C -0.804688 -8.886719 -0.6875 -9.117188 -0.457031 -9.117188 C -0.285156 -9.117188 -0.113281 -9.289062 0.0585938 -9.519531 C 0.171875 -9.746094 0.34375 -9.976562 0.402344 -9.976562 C 0.628906 -9.976562 0.628906 -10.4375 0.402344 -10.550781 C 0.230469 -10.609375 0.230469 -10.664062 0.402344 -10.722656 C 0.515625 -10.835938 0.574219 -10.78125 0.574219 -10.664062 C 0.574219 -10.550781 0.6875 -10.550781 0.746094 -10.609375 C 0.859375 -10.664062 0.976562 -10.835938 0.976562 -11.007812 C 0.976562 -11.238281 1.089844 -11.355469 1.261719 -11.355469 C 1.433594 -11.355469 1.492188 -11.296875 1.320312 -11.125 C 1.203125 -11.007812 1.203125 -10.835938 1.320312 -10.722656 C 1.433594 -10.550781 1.375 -10.4375 1.148438 -10.265625 C 0.859375 -10.09375 0.804688 -9.976562 0.976562 -9.863281 C 1.203125 -9.691406 1.71875 -10.265625 1.605469 -10.609375 C 1.546875 -10.722656 1.605469 -10.835938 1.777344 -10.835938 C 1.890625 -10.835938 2.0625 -10.953125 2.121094 -11.125 C 2.234375 -11.46875 2.582031 -11.871094 3.441406 -12.730469 C 3.726562 -13.015625 4.070312 -13.417969 4.242188 -13.648438 C 4.53125 -14.105469 4.53125 -14.164062 4.1875 -14.105469 C 4.015625 -14.105469 3.898438 -14.046875 3.898438 -13.992188 C 4.015625 -13.820312 3.097656 -12.960938 2.808594 -12.960938 C 2.464844 -12.960938 2.695312 -13.359375 2.351562 -13.1875 C 2.0625 -13.015625 2.351562 -13.53125 2.582031 -13.359375 C 2.808594 -13.246094 2.582031 -13.933594 3.210938 -14.21875 C 3.957031 -14.507812 3.667969 -15.023438 4.070312 -15.253906 C 4.242188 -15.367188 4.1875 -15.480469 4.015625 -15.597656 C 3.785156 -15.710938 3.84375 -15.769531 4.1875 -15.769531 C 4.414062 -15.769531 4.53125 -15.828125 4.472656 -15.941406 C 4.359375 -16.054688 4.414062 -16.113281 4.53125 -16.054688 C 4.875 -15.828125 5.160156 -16.113281 4.929688 -16.34375 C 4.757812 -16.570312 4.816406 -16.628906 5.046875 -16.800781 C 5.21875 -16.859375 5.277344 -16.972656 5.160156 -16.972656 C 4.703125 -16.972656 4.929688 -17.316406 5.449219 -17.375 C 6.078125 -17.433594 6.363281 -17.257812 5.90625 -17.085938 C 5.503906 -16.972656 5.734375 -16.457031 5.449219 -16.457031 C 5.21875 -16.457031 5.160156 -16.113281 5.5625 -16.113281 C 6.019531 -16.113281 7.109375 -17.890625 7.339844 -18.234375 C 8.660156 -20.011719 9.921875 -21.847656 11.296875 -23.625 C 11.410156 -23.796875 11.527344 -23.96875 11.640625 -24.199219 C 11.8125 -24.199219 12.042969 -24.199219 12.214844 -24.140625 C 13.359375 -24.140625 14.738281 -24.484375 15.828125 -24.828125 C 16.515625 -25.058594 17.144531 -25.058594 17.832031 -25.117188 L 18.003906 -25.117188 C 18.347656 -25.117188 18.75 -25.117188 19.09375 -25.171875 C 19.210938 -25.230469 19.324219 -25.289062 19.265625 -25.402344 C 19.09375 -25.460938 18.921875 -25.460938 18.75 -25.460938 C 18.347656 -25.460938 17.890625 -25.515625 17.433594 -25.515625 L 17.203125 -25.515625 C 16.972656 -25.632812 16.914062 -25.804688 16.6875 -25.859375 C 16.515625 -25.859375 16.285156 -25.746094 16.113281 -25.746094 L 14.792969 -25.574219 C 13.933594 -25.402344 13.132812 -25.230469 12.214844 -25.230469 C 11.925781 -25.230469 11.640625 -25.171875 11.355469 -25.171875 L 10.664062 -25.171875 C 10.835938 -25.402344 11.179688 -25.515625 11.46875 -25.574219 L 12.558594 -25.746094 C 13.074219 -25.804688 13.589844 -25.859375 14.105469 -25.976562 C 14.507812 -26.089844 15.082031 -25.976562 15.425781 -26.261719 C 15.828125 -26.605469 15.195312 -26.664062 14.851562 -26.664062 C 14.621094 -26.664062 14.335938 -26.550781 14.105469 -26.492188 C 13.761719 -26.433594 12.960938 -26.203125 13.132812 -26.433594 L 16.570312 -30.332031 C 17.085938 -30.964844 18.0625 -30.964844 18.347656 -31.195312 C 18.636719 -31.421875 18.867188 -31.824219 18.75 -32.109375 C 18.292969 -31.882812 17.777344 -31.765625 17.257812 -31.9375 C 17.257812 -31.996094 17.257812 -32.109375 17.203125 -32.226562 C 16.972656 -32.109375 16.742188 -31.996094 16.515625 -31.824219 C 15.308594 -31.023438 14.566406 -30.277344 11.699219 -27.292969 L 10.722656 -26.261719 L 10.609375 -26.261719 C 8.773438 -26.089844 7.796875 -25.859375 4.414062 -25.746094 C 4.015625 -25.515625 4.015625 -25.460938 4.242188 -24.65625 C 4.414062 -24.253906 4.1875 -23.96875 4.644531 -24.027344 C 7.96875 -24.253906 7.339844 -24.3125 9.175781 -24.3125 C 8.140625 -23.109375 7.28125 -22.078125 4.53125 -18.234375 C -0.859375 -10.722656 -5.449219 -5.792969 -3.613281 -2.179688 C -3.097656 -1.203125 -3.210938 -1.375 -2.808594 -1.375 Z M 9.289062 -25.230469 C 9.058594 -25.230469 8.773438 -25.289062 8.542969 -25.289062 C 8.601562 -25.402344 8.773438 -25.34375 8.886719 -25.34375 C 9.117188 -25.34375 9.347656 -25.402344 9.519531 -25.515625 L 9.460938 -25.460938 C 9.691406 -25.515625 9.863281 -25.515625 10.09375 -25.515625 C 10.148438 -25.460938 10.09375 -25.402344 10.035156 -25.402344 C 9.976562 -25.34375 9.921875 -25.34375 9.863281 -25.34375 C 9.804688 -25.34375 9.746094 -25.289062 9.691406 -25.230469 C 9.574219 -25.171875 9.460938 -25.171875 9.289062 -25.230469 Z M 6.191406 -18.40625 C 6.191406 -18.636719 6.652344 -18.636719 6.824219 -18.40625 C 6.9375 -18.121094 6.191406 -18.175781 6.191406 -18.40625 Z M 4.703125 -15.195312 C 4.875 -15.023438 4.988281 -15.023438 5.160156 -15.195312 C 5.332031 -15.367188 5.277344 -15.367188 4.929688 -15.367188 C 4.585938 -15.425781 4.53125 -15.367188 4.703125 -15.195312 Z M 4.242188 -14.792969 C 3.785156 -14.277344 4.703125 -14.21875 4.757812 -14.910156 C 4.757812 -15.136719 4.472656 -15.082031 4.242188 -14.792969 Z M 0.859375 -12.5 C 0.746094 -12.613281 1.71875 -14.105469 1.71875 -13.589844 C 1.71875 -13.359375 0.917969 -12.441406 0.859375 -12.5 Z M 2.007812 -11.925781 C 1.433594 -11.984375 1.261719 -12.269531 1.777344 -12.269531 C 2.007812 -12.269531 2.007812 -12.328125 1.890625 -12.386719 C 1.605469 -12.5 1.777344 -12.902344 2.121094 -12.613281 C 2.234375 -12.5 2.582031 -12.785156 2.582031 -12.269531 C 2.582031 -11.925781 2.464844 -11.871094 2.007812 -11.925781 Z M -0.457031 -10.722656 C -0.746094 -10.4375 -0.574219 -10.722656 0.171875 -11.8125 C 1.089844 -13.132812 0.230469 -11.296875 -0.457031 -10.722656 Z M 0.402344 -8.714844 C 0.574219 -8.714844 0.804688 -9.117188 0.804688 -9.460938 C 0.804688 -9.632812 0.574219 -9.691406 0.402344 -9.519531 C 0.230469 -9.347656 0.230469 -8.714844 0.402344 -8.714844 Z M -1.546875 -6.136719 C -1.03125 -5.964844 -0.171875 -7.796875 0.230469 -8.257812 C 0.457031 -8.488281 0.457031 -8.542969 0.230469 -8.542969 C 0.0585938 -8.542969 -0.113281 -8.488281 -0.230469 -8.429688 C -0.6875 -8.085938 -0.976562 -6.9375 -1.492188 -6.480469 C -1.71875 -6.25 -1.71875 -6.191406 -1.546875 -6.136719 Z M -1.546875 -6.136719 "/></g></g></g><g fill="#8c52ff" fill-opacity="1"><g transform="translate(61.178067, 60.178157)"><g><path d="M 2.980469 -8.832031 C 3.785156 -8.886719 4.53125 -9.175781 5.277344 -9.519531 C 10.722656 -11.8125 12.441406 -13.246094 14.21875 -14.394531 L 17.777344 -16.6875 C 18.0625 -16.859375 19.265625 -17.605469 19.039062 -18.0625 C 18.980469 -18.175781 18.921875 -18.234375 18.808594 -18.234375 C 18.347656 -18.292969 17.890625 -17.890625 17.488281 -17.660156 L 16.113281 -16.914062 C 15.308594 -16.515625 4.757812 -9.632812 2.179688 -10.4375 C 0.515625 -10.953125 1.492188 -13.132812 2.808594 -13.304688 C 4.359375 -13.53125 10.609375 -16.054688 11.925781 -16.972656 C 13.132812 -17.777344 13.476562 -18.121094 13.703125 -19.039062 C 13.875 -19.78125 13.589844 -21.101562 12.730469 -21.273438 C 11.925781 -21.386719 11.007812 -21.214844 10.265625 -20.988281 C 9.058594 -20.585938 7.914062 -19.898438 6.9375 -19.324219 C 4.128906 -17.71875 0 -13.875 -0.285156 -11.355469 C -0.457031 -9.519531 1.375 -8.660156 2.980469 -8.832031 Z M 5.390625 -14.964844 C 5.332031 -15.136719 5.675781 -15.195312 5.734375 -15.367188 C 6.363281 -15.597656 6.136719 -15.539062 6.308594 -15.652344 C 6.25 -15.652344 6.191406 -15.652344 6.191406 -15.710938 L 6.019531 -15.597656 L 5.964844 -15.597656 C 3.785156 -14.792969 3.613281 -14.792969 4.585938 -15.652344 C 7.109375 -17.890625 8.542969 -18.578125 9.863281 -19.152344 C 11.355469 -19.839844 11.8125 -20.125 11.925781 -20.355469 C 12.214844 -20.988281 12.386719 -20.183594 12.613281 -20.296875 C 12.671875 -20.355469 12.785156 -20.585938 12.84375 -20.355469 C 12.902344 -20.125 12.84375 -19.78125 12.902344 -19.496094 C 12.902344 -19.265625 12.960938 -19.152344 12.785156 -18.980469 C 12.613281 -18.808594 12.328125 -18.75 12.15625 -18.578125 C 11.925781 -18.40625 11.753906 -18.175781 11.527344 -18.0625 C 11.179688 -17.832031 10.722656 -17.71875 10.378906 -17.605469 C 10.035156 -17.488281 9.804688 -17.203125 9.460938 -17.03125 C 9.347656 -16.972656 8.714844 -16.6875 8.945312 -16.515625 L 9.230469 -16.515625 C 9.058594 -16.34375 8.601562 -16.398438 8.773438 -16.226562 C 8.773438 -16.171875 8.027344 -16.113281 8.085938 -16.054688 C 8.257812 -16 8.199219 -15.882812 8.027344 -15.941406 C 7.855469 -16 6.480469 -15.480469 6.535156 -15.425781 C 6.59375 -15.253906 6.363281 -15.539062 6.25 -15.253906 C 6.191406 -15.195312 6.191406 -15.136719 6.136719 -15.195312 C 6.136719 -15.253906 5.734375 -15.136719 5.734375 -15.023438 C 5.792969 -14.964844 5.734375 -15.082031 5.390625 -14.964844 Z M 9.574219 -16.628906 C 9.117188 -16.398438 9.230469 -16.914062 9.402344 -16.859375 C 9.519531 -16.800781 9.175781 -16.628906 9.519531 -16.742188 C 9.632812 -16.800781 9.746094 -16.859375 9.746094 -16.800781 C 9.691406 -16.742188 9.976562 -16.859375 10.035156 -16.800781 C 10.035156 -16.742188 10.035156 -16.742188 9.976562 -16.742188 C 9.921875 -16.800781 9.863281 -16.742188 9.921875 -16.6875 C 9.921875 -16.515625 9.863281 -16.742188 9.574219 -16.628906 Z M 6.480469 -15.195312 C 6.535156 -15.253906 8.886719 -16.113281 8.886719 -16.054688 C 8.945312 -15.882812 6.308594 -14.792969 6.480469 -15.195312 Z M 6.480469 -15.195312 "/></g></g></g><g fill="#8c52ff" fill-opacity="1"><g transform="translate(74.53706, 60.178157)"><g/></g></g><g fill="#8c52ff" fill-opacity="1"><g transform="translate(91.73748, 60.178157)"><g><path d="M 28.5 -34.632812 C 28.328125 -34.976562 28.097656 -35.378906 27.808594 -35.609375 C 27.007812 -36.355469 26.203125 -35.378906 25.058594 -34.289062 C 25.058594 -34.347656 24.597656 -35.550781 22.707031 -36.011719 C 15.539062 -37.671875 -0.402344 -18.0625 3.441406 -7.511719 C 3.726562 -6.707031 4.242188 -5.90625 4.988281 -5.5625 C 6.535156 -4.816406 8.199219 -5.621094 9.347656 -6.652344 C 12.269531 -9.117188 17.085938 -13.359375 18.921875 -16.742188 C 18.980469 -16.800781 19.039062 -16.914062 19.039062 -16.972656 C 19.039062 -17.03125 19.039062 -17.085938 18.980469 -17.085938 L 19.039062 -17.316406 C 19.152344 -17.488281 18.921875 -18.347656 18.75 -18.234375 C 18.292969 -18.691406 18.691406 -17.777344 14.449219 -13.53125 C 12.902344 -12.042969 15.082031 -13.703125 11.066406 -10.378906 C 7.625 -7.511719 7.96875 -8.085938 6.882812 -7.511719 C 6.078125 -7.109375 5.449219 -7.398438 5.101562 -8.199219 C 4.128906 -10.378906 5.160156 -13.304688 5.90625 -15.539062 C 6.136719 -16.285156 6.363281 -17.203125 6.765625 -17.890625 C 6.9375 -18.121094 6.996094 -18.40625 6.996094 -18.519531 C 6.9375 -18.75 7.683594 -19.210938 7.683594 -19.667969 C 7.683594 -19.839844 7.742188 -20.011719 7.796875 -20.011719 C 8.027344 -20.011719 8.660156 -21.042969 8.832031 -21.730469 C 9.289062 -23.164062 11.984375 -26.433594 12.15625 -26.777344 C 13.1875 -28.441406 16.6875 -32.054688 19.324219 -33.542969 C 20.011719 -33.890625 22.25 -35.4375 23.222656 -34.289062 C 23.453125 -34.003906 23.855469 -32.972656 23.394531 -32.511719 C 23.335938 -32.457031 18.980469 -28.15625 17.71875 -25.402344 C 17.203125 -24.3125 16.742188 -22.304688 18.003906 -21.503906 C 18.464844 -21.273438 18.292969 -22.9375 19.78125 -25.230469 C 21.445312 -27.867188 26.320312 -32.628906 28.097656 -33.714844 C 28.5 -33.945312 28.613281 -34.117188 28.5 -34.632812 Z M 17.546875 -32.914062 C 17.375 -32.972656 17.203125 -32.742188 16.113281 -31.765625 C 14.738281 -30.5625 15.308594 -30.449219 14.851562 -30.332031 C 14.507812 -30.277344 13.820312 -29.242188 13.359375 -28.898438 C 12.84375 -28.613281 12.730469 -27.867188 12.097656 -27.351562 C 11.582031 -26.835938 11.871094 -26.664062 11.582031 -26.605469 C 11.238281 -26.550781 10.609375 -25.058594 10.320312 -25 C 10.035156 -24.945312 10.148438 -24.484375 9.921875 -24.425781 C 9.691406 -24.371094 7.511719 -20.644531 7.570312 -20.414062 C 7.625 -20.242188 6.9375 -19.898438 6.824219 -19.152344 C 6.707031 -18.40625 6.363281 -18.636719 6.421875 -18.40625 C 6.480469 -18.175781 5.277344 -15.539062 5.046875 -14.910156 C 4.757812 -14.277344 4.875 -14.335938 4.359375 -11.871094 C 3.84375 -9.519531 3.667969 -11.066406 4.875 -15.195312 C 5.332031 -16.859375 6.136719 -18.175781 6.078125 -18.519531 C 5.964844 -18.808594 6.535156 -18.867188 6.59375 -19.324219 C 6.652344 -20.183594 7.398438 -21.558594 9.402344 -24.597656 C 11.410156 -27.695312 12.15625 -27.808594 11.753906 -27.984375 C 11.179688 -28.15625 12.269531 -28.039062 12.613281 -28.726562 C 12.785156 -29.070312 12.785156 -29.070312 12.558594 -28.898438 C 12.15625 -28.613281 12.269531 -28.84375 13.015625 -29.644531 C 14.910156 -31.765625 15.253906 -32.109375 15.652344 -32.054688 C 15.882812 -32.054688 15.941406 -32.109375 15.769531 -32.167969 C 15.539062 -32.226562 15.652344 -32.339844 16.113281 -32.742188 C 16.800781 -33.316406 17.03125 -33.371094 16.972656 -33.144531 C 16.859375 -32.914062 17.085938 -32.972656 17.433594 -33.371094 C 18.519531 -34.460938 17.777344 -32.800781 17.546875 -32.914062 Z M 25.289062 -32.855469 C 25.230469 -32.914062 25.804688 -33.371094 25.917969 -33.316406 C 26.089844 -33.199219 25.34375 -32.570312 25.289062 -32.855469 Z M 14.449219 -30.90625 C 14.277344 -30.847656 13.703125 -30.046875 13.875 -30.105469 C 14.105469 -30.160156 14.621094 -30.964844 14.449219 -30.90625 Z M 21.214844 -27.867188 C 20.816406 -27.351562 20.242188 -26.949219 19.78125 -26.492188 C 19.382812 -26.089844 18.867188 -25.230469 18.636719 -25.171875 C 17.488281 -24.886719 21.101562 -28.671875 21.730469 -29.359375 C 23.394531 -31.367188 22.820312 -29.703125 21.214844 -27.867188 Z M 12.960938 -29.300781 C 13.015625 -29.1875 13.1875 -29.300781 13.417969 -29.589844 C 13.933594 -30.21875 12.902344 -29.417969 12.960938 -29.300781 Z M 11.582031 -9.746094 L 14.449219 -12.15625 C 14.679688 -12.214844 14.910156 -13.246094 18.464844 -16.6875 C 17.777344 -15.082031 15.367188 -13.246094 15.082031 -12.5 C 14.910156 -12.042969 13.589844 -10.894531 13.359375 -10.722656 C 13.1875 -10.550781 13.132812 -10.378906 12.960938 -10.265625 C 12.613281 -10.035156 12.441406 -10.09375 12.214844 -9.746094 C 11.925781 -9.289062 10.953125 -8.601562 10.664062 -8.542969 C 9.746094 -8.488281 11.46875 -9.574219 11.582031 -9.746094 Z M 3.898438 -10.378906 C 3.84375 -10.550781 4.128906 -10.609375 4.128906 -10.550781 C 4.1875 -10.492188 3.957031 -10.148438 3.898438 -10.378906 Z M 3.898438 -10.378906 "/></g></g></g><g fill="#8c52ff" fill-opacity="1"><g transform="translate(111.116613, 60.178157)"><g><path d="M 8.316406 -8.316406 C 8.714844 -8.257812 9.117188 -8.488281 9.460938 -8.714844 C 20.929688 -16.113281 12.269531 -10.378906 22.019531 -16.6875 C 22.304688 -16.859375 23.566406 -17.605469 23.28125 -18.0625 C 23.28125 -18.175781 23.164062 -18.234375 23.109375 -18.234375 C 22.59375 -18.292969 22.078125 -17.832031 21.675781 -17.660156 L 20.125 -16.800781 C 10.378906 -11.410156 10.378906 -10.894531 9.519531 -11.007812 C 9.402344 -11.46875 10.148438 -11.699219 10.148438 -12.15625 C 10.148438 -12.214844 10.035156 -12.15625 9.863281 -12.097656 C 9.289062 -11.925781 9.632812 -12.386719 10.265625 -12.671875 C 10.722656 -12.902344 10.835938 -13.015625 10.664062 -13.132812 C 10.492188 -13.246094 10.550781 -13.304688 10.835938 -13.359375 C 11.582031 -13.589844 10.835938 -13.820312 11.582031 -14.335938 C 12.042969 -14.679688 11.527344 -15.082031 11.984375 -15.082031 C 12.441406 -15.082031 12.15625 -15.941406 12.441406 -15.941406 C 12.902344 -15.941406 16.457031 -19.898438 15.539062 -20.699219 C 15.308594 -20.871094 14.738281 -20.242188 14.449219 -21.160156 C 13.1875 -24.597656 5.390625 -18.234375 3.210938 -15.882812 C 1.433594 -14.046875 0.230469 -11.582031 0 -10.664062 C -0.230469 -9.402344 0.976562 -8.886719 1.890625 -9.230469 C 3.84375 -10.035156 2.867188 -10.148438 8.601562 -13.875 C 10.148438 -14.851562 10.207031 -14.910156 9.632812 -14.046875 C 9.117188 -13.246094 8.660156 -12.441406 8.199219 -11.582031 C 7.742188 -10.722656 6.996094 -9.863281 7.683594 -8.832031 C 7.855469 -8.601562 8.027344 -8.429688 8.316406 -8.316406 Z M 2.980469 -11.640625 C 2.179688 -11.125 2.121094 -11.925781 2.523438 -12.386719 C 2.867188 -12.902344 3.496094 -13.304688 3.667969 -13.875 C 3.84375 -14.394531 4.300781 -14.046875 3.898438 -14.507812 C 3.726562 -14.738281 3.726562 -14.792969 4.070312 -14.679688 C 4.472656 -14.566406 4.929688 -14.910156 4.703125 -15.136719 C 4.53125 -15.308594 5.21875 -16 5.390625 -15.828125 C 5.621094 -15.710938 6.25 -16.285156 6.25 -16.570312 C 6.25 -16.859375 7.511719 -17.832031 8.085938 -18.0625 C 8.316406 -18.175781 8.542969 -18.347656 8.542969 -18.40625 C 8.542969 -18.808594 12.613281 -21.160156 13.074219 -21.042969 C 13.359375 -20.929688 13.476562 -19.039062 9.691406 -16.34375 C 7.398438 -14.792969 5.332031 -13.015625 2.980469 -11.640625 Z M 8.945312 -11.8125 C 8.886719 -11.871094 8.945312 -11.925781 8.945312 -11.984375 C 8.945312 -12.15625 8.886719 -12.269531 9.003906 -12.386719 C 9.058594 -12.5 9.289062 -12.730469 9.402344 -12.558594 C 9.460938 -12.441406 9.175781 -12.15625 9.117188 -12.042969 C 9.058594 -11.925781 9.058594 -11.699219 8.945312 -11.8125 Z M 8.371094 -10.835938 C 8.257812 -10.835938 8.257812 -10.953125 8.371094 -11.066406 C 8.886719 -11.699219 8.773438 -10.835938 8.371094 -10.835938 Z M 8.371094 -10.835938 "/></g></g></g><g fill="#8c52ff" fill-opacity="1"><g transform="translate(128.718374, 60.178157)"><g><path d="M 17.144531 -18.003906 C 17.085938 -18.121094 16.972656 -18.175781 16.914062 -18.175781 C 16.34375 -18.175781 15.710938 -17.890625 15.308594 -17.546875 C 14.851562 -17.144531 14.335938 -16.914062 13.820312 -16.628906 C 12.960938 -16.171875 12.042969 -15.597656 11.125 -15.253906 C 10.664062 -15.082031 10.265625 -14.964844 9.804688 -14.910156 L 8.945312 -14.851562 C 9.117188 -15.539062 8.945312 -16.285156 8.371094 -16.6875 C 7.796875 -17.085938 6.707031 -17.375 6.707031 -17.832031 C 6.707031 -18.292969 7.167969 -18.691406 7.339844 -18.808594 C 9.117188 -20.242188 10.550781 -20.929688 12.960938 -21.101562 C 13.476562 -21.160156 14.335938 -21.101562 14.792969 -20.816406 C 15.023438 -20.988281 15.023438 -21.386719 14.738281 -21.503906 L 14.507812 -21.617188 L 14.394531 -21.789062 C 14.105469 -22.078125 13.703125 -22.191406 13.359375 -22.191406 C 10.722656 -22.191406 9.230469 -21.386719 6.707031 -19.898438 C 6.019531 -19.496094 5.332031 -18.921875 4.816406 -18.292969 C 4.414062 -17.832031 4.128906 -17.03125 4.703125 -16.515625 C 5.21875 -16.054688 6.078125 -16.054688 6.652344 -15.710938 C 6.765625 -15.652344 6.882812 -15.597656 6.882812 -15.539062 C 7.054688 -15.308594 6.882812 -14.566406 6.882812 -14.507812 C 6.078125 -14.046875 4.816406 -13.476562 4.644531 -13.132812 C 4.585938 -13.015625 4.53125 -12.960938 4.472656 -13.074219 C 4.300781 -13.359375 -3.441406 -10.207031 -1.375 -7.914062 C -0.804688 -7.28125 -0.457031 -7.167969 0.515625 -7.511719 C 1.664062 -7.914062 2.867188 -8.140625 4.015625 -8.660156 C 5.046875 -9.117188 7.398438 -11.355469 8.085938 -12.328125 C 8.316406 -12.613281 8.488281 -12.902344 8.601562 -13.1875 C 8.886719 -13.359375 9.460938 -13.476562 9.804688 -13.648438 C 10.09375 -13.820312 10.4375 -13.820312 10.78125 -13.992188 L 12.042969 -14.566406 C 13.359375 -15.136719 14.566406 -15.882812 15.828125 -16.628906 C 16.113281 -16.800781 17.375 -17.546875 17.144531 -18.003906 Z M 0.402344 -9.117188 C -1.890625 -8.945312 4.300781 -12.269531 6.59375 -12.558594 L 6.882812 -12.5 C 6.652344 -11.582031 2.121094 -9.230469 0.402344 -9.117188 Z M 1.71875 -8.832031 C 2.925781 -9.289062 3.324219 -9.402344 3.324219 -9.175781 C 3.324219 -8.832031 -0.859375 -7.855469 1.71875 -8.832031 Z M 1.71875 -8.832031 "/></g></g></g><g fill="#8c52ff" fill-opacity="1"><g transform="translate(140.12798, 60.178157)"><g><path d="M 2.980469 -8.832031 C 3.785156 -8.886719 4.53125 -9.175781 5.277344 -9.519531 C 10.722656 -11.8125 12.441406 -13.246094 14.21875 -14.394531 L 17.777344 -16.6875 C 18.0625 -16.859375 19.265625 -17.605469 19.039062 -18.0625 C 18.980469 -18.175781 18.921875 -18.234375 18.808594 -18.234375 C 18.347656 -18.292969 17.890625 -17.890625 17.488281 -17.660156 L 16.113281 -16.914062 C 15.308594 -16.515625 4.757812 -9.632812 2.179688 -10.4375 C 0.515625 -10.953125 1.492188 -13.132812 2.808594 -13.304688 C 4.359375 -13.53125 10.609375 -16.054688 11.925781 -16.972656 C 13.132812 -17.777344 13.476562 -18.121094 13.703125 -19.039062 C 13.875 -19.78125 13.589844 -21.101562 12.730469 -21.273438 C 11.925781 -21.386719 11.007812 -21.214844 10.265625 -20.988281 C 9.058594 -20.585938 7.914062 -19.898438 6.9375 -19.324219 C 4.128906 -17.71875 0 -13.875 -0.285156 -11.355469 C -0.457031 -9.519531 1.375 -8.660156 2.980469 -8.832031 Z M 5.390625 -14.964844 C 5.332031 -15.136719 5.675781 -15.195312 5.734375 -15.367188 C 6.363281 -15.597656 6.136719 -15.539062 6.308594 -15.652344 C 6.25 -15.652344 6.191406 -15.652344 6.191406 -15.710938 L 6.019531 -15.597656 L 5.964844 -15.597656 C 3.785156 -14.792969 3.613281 -14.792969 4.585938 -15.652344 C 7.109375 -17.890625 8.542969 -18.578125 9.863281 -19.152344 C 11.355469 -19.839844 11.8125 -20.125 11.925781 -20.355469 C 12.214844 -20.988281 12.386719 -20.183594 12.613281 -20.296875 C 12.671875 -20.355469 12.785156 -20.585938 12.84375 -20.355469 C 12.902344 -20.125 12.84375 -19.78125 12.902344 -19.496094 C 12.902344 -19.265625 12.960938 -19.152344 12.785156 -18.980469 C 12.613281 -18.808594 12.328125 -18.75 12.15625 -18.578125 C 11.925781 -18.40625 11.753906 -18.175781 11.527344 -18.0625 C 11.179688 -17.832031 10.722656 -17.71875 10.378906 -17.605469 C 10.035156 -17.488281 9.804688 -17.203125 9.460938 -17.03125 C 9.347656 -16.972656 8.714844 -16.6875 8.945312 -16.515625 L 9.230469 -16.515625 C 9.058594 -16.34375 8.601562 -16.398438 8.773438 -16.226562 C 8.773438 -16.171875 8.027344 -16.113281 8.085938 -16.054688 C 8.257812 -16 8.199219 -15.882812 8.027344 -15.941406 C 7.855469 -16 6.480469 -15.480469 6.535156 -15.425781 C 6.59375 -15.253906 6.363281 -15.539062 6.25 -15.253906 C 6.191406 -15.195312 6.191406 -15.136719 6.136719 -15.195312 C 6.136719 -15.253906 5.734375 -15.136719 5.734375 -15.023438 C 5.792969 -14.964844 5.734375 -15.082031 5.390625 -14.964844 Z M 9.574219 -16.628906 C 9.117188 -16.398438 9.230469 -16.914062 9.402344 -16.859375 C 9.519531 -16.800781 9.175781 -16.628906 9.519531 -16.742188 C 9.632812 -16.800781 9.746094 -16.859375 9.746094 -16.800781 C 9.691406 -16.742188 9.976562 -16.859375 10.035156 -16.800781 C 10.035156 -16.742188 10.035156 -16.742188 9.976562 -16.742188 C 9.921875 -16.800781 9.863281 -16.742188 9.921875 -16.6875 C 9.921875 -16.515625 9.863281 -16.742188 9.574219 -16.628906 Z M 6.480469 -15.195312 C 6.535156 -15.253906 8.886719 -16.113281 8.886719 -16.054688 C 8.945312 -15.882812 6.308594 -14.792969 6.480469 -15.195312 Z M 6.480469 -15.195312 "/></g></g></g><g fill="#8c52ff" fill-opacity="1"><g transform="translate(153.486973, 60.178157)"><g><path d="M 17.144531 -18.003906 C 17.085938 -18.121094 16.972656 -18.175781 16.914062 -18.175781 C 16.34375 -18.175781 15.710938 -17.890625 15.308594 -17.546875 C 14.851562 -17.144531 14.335938 -16.914062 13.820312 -16.628906 C 12.960938 -16.171875 12.042969 -15.597656 11.125 -15.253906 C 10.664062 -15.082031 10.265625 -14.964844 9.804688 -14.910156 L 8.945312 -14.851562 C 9.117188 -15.539062 8.945312 -16.285156 8.371094 -16.6875 C 7.796875 -17.085938 6.707031 -17.375 6.707031 -17.832031 C 6.707031 -18.292969 7.167969 -18.691406 7.339844 -18.808594 C 9.117188 -20.242188 10.550781 -20.929688 12.960938 -21.101562 C 13.476562 -21.160156 14.335938 -21.101562 14.792969 -20.816406 C 15.023438 -20.988281 15.023438 -21.386719 14.738281 -21.503906 L 14.507812 -21.617188 L 14.394531 -21.789062 C 14.105469 -22.078125 13.703125 -22.191406 13.359375 -22.191406 C 10.722656 -22.191406 9.230469 -21.386719 6.707031 -19.898438 C 6.019531 -19.496094 5.332031 -18.921875 4.816406 -18.292969 C 4.414062 -17.832031 4.128906 -17.03125 4.703125 -16.515625 C 5.21875 -16.054688 6.078125 -16.054688 6.652344 -15.710938 C 6.765625 -15.652344 6.882812 -15.597656 6.882812 -15.539062 C 7.054688 -15.308594 6.882812 -14.566406 6.882812 -14.507812 C 6.078125 -14.046875 4.816406 -13.476562 4.644531 -13.132812 C 4.585938 -13.015625 4.53125 -12.960938 4.472656 -13.074219 C 4.300781 -13.359375 -3.441406 -10.207031 -1.375 -7.914062 C -0.804688 -7.28125 -0.457031 -7.167969 0.515625 -7.511719 C 1.664062 -7.914062 2.867188 -8.140625 4.015625 -8.660156 C 5.046875 -9.117188 7.398438 -11.355469 8.085938 -12.328125 C 8.316406 -12.613281 8.488281 -12.902344 8.601562 -13.1875 C 8.886719 -13.359375 9.460938 -13.476562 9.804688 -13.648438 C 10.09375 -13.820312 10.4375 -13.820312 10.78125 -13.992188 L 12.042969 -14.566406 C 13.359375 -15.136719 14.566406 -15.882812 15.828125 -16.628906 C 16.113281 -16.800781 17.375 -17.546875 17.144531 -18.003906 Z M 0.402344 -9.117188 C -1.890625 -8.945312 4.300781 -12.269531 6.59375 -12.558594 L 6.882812 -12.5 C 6.652344 -11.582031 2.121094 -9.230469 0.402344 -9.117188 Z M 1.71875 -8.832031 C 2.925781 -9.289062 3.324219 -9.402344 3.324219 -9.175781 C 3.324219 -8.832031 -0.859375 -7.855469 1.71875 -8.832031 Z M 1.71875 -8.832031 "/></g></g></g></svg>